HIERARCHY
ROOT Hips
{
  OFFSET 0 0 0
  CHANNELS 6 Xposition Yposition Zposition Zrotation Yrotation Xrotation
  JOINT LeftThigh
  {
    OFFSET 8.409438 0 -5.917753
    CHANNELS 3 Zrotation Yrotation Xrotation
    JOINT LeftLeg
    {
      OFFSET 0 0 -42.358652
      CHANNELS 3 Zrotation Yrotation Xrotation
      JOINT LeftFoot
      {
        OFFSET 0 0 -39.357303
        CHANNELS 3 Zrotation Yrotation Xrotation
      }
    }
  }
  JOINT RightThigh
  {
    OFFSET -8.409438 0 -5.917753
    CHANNELS 3 Zrotation Yrotation Xrotation
    JOINT RightLeg
    {
      OFFSET 0 0 -42.358652
      CHANNELS 3 Zrotation Yrotation Xrotation
      JOINT RightFoot
      {
        OFFSET 0 0 -39.357303
        CHANNELS 3 Zrotation Yrotation Xrotation
      }
    }
  }
  JOINT SpineLow
  {
    OFFSET 0 0 4.719101
    CHANNELS 3 Zrotation Yrotation Xrotation
    JOINT SpineMid
    {
      OFFSET 0 0 12.899191
      CHANNELS 3 Zrotation Yrotation Xrotation
      JOINT Chest
      {
        OFFSET 0 0 12.899191
        CHANNELS 3 Zrotation Yrotation Xrotation
        JOINT LeftShoulder
        {
          OFFSET 7.550562 1.41573 9.438202
          CHANNELS 3 Zrotation Yrotation Xrotation
          JOINT LeftArm
          {
            OFFSET 9.155056 0 4.247191
            CHANNELS 3 Zrotation Yrotation Xrotation
            JOINT LeftForearm
            {
              OFFSET 0 0 25.771955
              CHANNELS 3 Zrotation Yrotation Xrotation
              JOINT LeftHand
              {
                OFFSET 0 0 25.197169
                CHANNELS 3 Zrotation Yrotation Xrotation
              }
            }
          }
        }
        JOINT RightShoulder
        {
          OFFSET -7.550562 1.41573 9.438202
          CHANNELS 3 Zrotation Yrotation Xrotation
          JOINT RightArm
          {
            OFFSET -9.155056 0 4.247191
            CHANNELS 3 Zrotation Yrotation Xrotation
            JOINT RightForearm
            {
              OFFSET 0 0 -25.771955
              CHANNELS 3 Zrotation Yrotation Xrotation
              JOINT RightHand
              {
                OFFSET 0 0 -25.197169
                CHANNELS 3 Zrotation Yrotation Xrotation
              }
            }
          }
        }
        JOINT Neck
        {
          OFFSET 0 0 15.101124
          CHANNELS 3 Zrotation Yrotation Xrotation
          JOINT Head
          {
            OFFSET 0 0 11.325843
            CHANNELS 3 Zrotation Yrotation Xrotation
            End Site
            {
              OFFSET 0 0 14.157303
            }
          }
        }
      }
    }
  }
}
MOTION
Frames: 8
Frame Time: 0.0
0.0  93.25843  0.0  7.614913  -38.756068  -90.204987  20.309345  -6.274414  -3.085035  4.359703  1.61124  19.25922  7.379557  2.293373  4.517809  -0.823154  6.983576  -17.464797  3.972503  9.468109  13.482914  3.368451  1.497517  -0.575214  -5.517914  -0.6485  -1.582378  -15.037474  -2.12088  -4.15326  -15.037473  -2.12088  -4.15326  -18.0937  2.901895  11.884959  14.388296  54.772026  68.902569  -23.121471  -17.026233  132.98132  69.052174  -37.403777  18.557419  12.037068  3.473089  31.581881  56.03557  10.717878  45.954479  -5.823345  -8.758949  -117.790243  57.469749  20.66763  -7.102059  26.760997  3.038244  2.019148  20.056277  2.372602  1.383863  
0.0  93.25843  0.0  7.754693  -38.18597  -90.344036  20.58489  -6.231472  -2.989391  3.836516  1.747204  19.210382  7.23148  2.275219  4.504209  -0.915496  7.153115  -17.351369  3.868322  9.691769  13.767688  3.385937  1.520229  -0.635045  -5.519687  -0.60551  -1.630881  -15.042994  -2.015198  -4.294677  -15.042994  -2.015198  -4.294677  -18.50166  3.453307  11.971927  13.451394  54.927746  68.125609  -23.27643  -16.814218  133.194503  68.899829  -37.461125  18.340732  12.085309  3.28209  31.73105  56.110377  10.982669  45.809505  -5.689755  -8.778531  -117.75429  57.977499  20.779332  -6.947362  26.55606  3.039095  2.187343  19.901816  2.379814  1.511204  
0.0  93.25843  0.0  7.873554  -37.523096  -90.496065  20.180497  -6.200123  -3.158284  3.63392  1.826302  19.325542  7.011678  2.259188  4.498798  -0.973724  7.397734  -17.122077  4.793292  9.963932  14.230423  2.682677  1.196247  -0.717013  -5.545349  -0.565563  -1.673971  -15.113983  -1.918123  -4.419914  -15.113982  -1.918123  -4.419914  -18.570662  4.076622  12.089267  13.005485  55.201903  67.699271  -23.182233  -18.160892  135.139381  69.092308  -36.419825  16.252031  12.128475  3.109502  31.823  56.341656  11.283192  45.849819  -5.825546  -8.803117  -117.943863  58.556549  20.533208  -6.822365  26.427786  3.032007  2.338371  19.804974  2.380528  1.625619  
0.0  93.25843  0.0  8.101617  -36.873382  -90.766851  19.86792  -6.14685  -3.071432  3.546698  1.950781  19.482751  6.828644  2.260017  4.50889  -1.339296  7.653366  -16.915545  4.763132  10.045165  14.427285  2.725486  1.195597  -0.754433  -5.538142  -0.504252  -1.693444  -15.097302  -1.75557  -4.486886  -15.097302  -1.75557  -4.486886  -18.930423  4.525955  12.099593  12.825272  55.28999  67.67258  -23.130225  -18.113955  135.084719  69.223412  -36.377253  16.097673  12.220857  2.994142  31.94892  56.502394  11.59495  45.791824  -5.824863  -8.613999  -117.918075  59.165567  20.612005  -6.56535  26.23887  3.064637  2.364658  19.662968  2.405385  1.644847  
0.0  93.25843  0.0  8.116849  -36.073442  -90.775352  18.76441  -6.248874  -3.512195  3.701988  2.08606  19.827911  6.76121  2.281333  4.601794  -2.068233  7.768183  -16.879423  4.769841  10.072001  14.601852  3.283375  1.334403  -0.735931  -5.57421  -0.482087  -1.720102  -15.196412  -1.703864  -4.563251  -15.196413  -1.703864  -4.563251  -18.633925  5.112245  12.041779  13.476583  55.455889  68.459432  -23.125994  -18.833577  135.589258  68.990793  -40.119983  20.882861  12.417778  2.953078  32.012441  56.798013  11.849934  45.849896  -5.898786  -8.465579  -117.93525  59.738814  20.545743  -6.355859  26.197354  3.066638  2.394539  19.631685  2.407996  1.667412  
0.0  93.25843  0.0  8.161662  -35.341029  -90.842194  17.968013  -6.315185  -3.748809  3.810037  2.266663  20.224265  6.656005  2.317951  4.636543  -2.993218  7.870033  -16.842029  4.72506  10.088587  14.67583  3.370226  1.315052  -0.770911  -5.554375  -0.442891  -1.724141  -15.14452  -1.597005  -4.583684  -15.14452  -1.597005  -4.583684  -18.867758  5.453434  12.011833  13.75668  55.582642  68.826238  -23.176247  -19.437479  135.41267  69.358793  -40.123318  20.798946  12.541962  2.924786  32.102061  57.024021  12.084154  45.761778  -5.900358  -8.350377  -117.84624  60.194311  20.584391  -6.165018  26.058332  3.079216  2.314492  19.52773  2.413421  1.607382  
0.0  93.25843  0.0  8.061814  -34.733729  -90.953619  17.406629  -6.541889  -3.835491  3.977297  2.477979  20.738284  6.394707  2.322465  4.543  -3.914348  7.898383  -16.708111  4.691013  10.14963  14.693623  3.336336  1.201636  -0.826907  -5.518316  -0.416284  -1.697859  -15.048351  -1.516351  -4.519258  -15.048351  -1.516351  -4.519259  -18.642411  5.88418  12.026963  14.900848  55.826361  69.978974  -23.273885  -21.352906  136.712309  69.94555  -39.909815  20.446488  12.605709  2.894287  32.096564  56.659914  12.557675  45.179759  -5.209802  -8.073827  -117.414568  60.5628  20.526983  -6.105045  25.944217  3.037034  2.210767  19.442936  2.376817  1.5318  
0.0  93.25843  0.0  7.960682  -33.787963  -90.936177  16.375869  -6.686076  -4.238984  3.974274  2.663281  21.219641  6.352175  2.365433  4.556002  -5.290918  7.859466  -16.71292  4.56849  10.233868  14.67366  3.598008  1.115409  -0.807597  -5.506386  -0.391867  -1.678485  -15.017758  -1.444861  -4.47241  -15.017757  -1.444861  -4.47241  -18.708221  6.143036  12.028954  15.314223  56.093885  70.435292  -23.427118  -22.144214  136.455032  70.143681  -39.886548  20.457764  12.746056  2.873414  32.200476  56.947103  12.866022  45.043995  -5.035468  -8.222904  -117.348767  60.849741  20.631223  -6.032103  25.873253  3.046216  2.096318  19.390202  2.37857  1.445743  
